<?xml version="1.0" encoding="UTF-8" standalone="no"?>
<svg
   xmlns:dc="http://purl.org/dc/elements/1.1/"
   xmlns:cc="http://web.resource.org/cc/"
   xmlns:rdf="http://www.w3.org/1999/02/22-rdf-syntax-ns#"
   xmlns:svg="http://www.w3.org/2000/svg"
   xmlns="http://www.w3.org/2000/svg"
   xmlns:sodipodi="http://inkscape.sourceforge.net/DTD/sodipodi-0.dtd"
   xmlns:inkscape="http://www.inkscape.org/namespaces/inkscape"
   width="11.15cm"
   height="11.15cm"
   id="svg2356"
   sodipodi:version="0.32"
   inkscape:version="0.43"
   sodipodi:docname="BorromeanCross.svg"
   sodipodi:docbase="/home/christoph/Desktop"
   version="1.0">
  <metadata
     id="metadata2415">
    <rdf:RDF>
      <cc:Work
         rdf:about="">
        <dc:format>image/svg+xml</dc:format>
        <dc:type
           rdf:resource="http://purl.org/dc/dcmitype/StillImage" />
        <dc:title>Borromean Cross</dc:title>
        <dc:date>2006-11-09</dc:date>
        <dc:creator>
          <cc:Agent>
            <dc:title>Christoph Sommer</dc:title>
          </cc:Agent>
        </dc:creator>
        <dc:rights>
          <cc:Agent>
            <dc:title>Christoph Sommer</dc:title>
          </cc:Agent>
        </dc:rights>
        <dc:source></dc:source>
        <cc:license
           rdf:resource="http://web.resource.org/cc/PublicDomain" />
        <dc:publisher>
          <cc:Agent>
            <dc:title></dc:title>
          </cc:Agent>
        </dc:publisher>
        <dc:description>Borromean Cross</dc:description>
        <dc:contributor>
          <cc:Agent>
            <dc:title>http://commons.wikimedia.org/wiki/User:AnonMoos (original Postscript version)</dc:title>
          </cc:Agent>
        </dc:contributor>
        <dc:relation>http://commons.wikimedia.org/wiki/Image:Borromean-cross.png</dc:relation>
      </cc:Work>
      <cc:License
         rdf:about="http://web.resource.org/cc/PublicDomain">
        <cc:permits
           rdf:resource="http://web.resource.org/cc/Reproduction" />
        <cc:permits
           rdf:resource="http://web.resource.org/cc/Distribution" />
        <cc:permits
           rdf:resource="http://web.resource.org/cc/DerivativeWorks" />
      </cc:License>
    </rdf:RDF>
  </metadata>
  <sodipodi:namedview
     inkscape:window-height="1092"
     inkscape:window-width="1910"
     inkscape:pageshadow="2"
     inkscape:pageopacity="0"
     borderopacity="1.0"
     bordercolor="#666666"
     pagecolor="#ffffff"
     id="base"
     inkscape:zoom="2.0403032"
     inkscape:cx="195.87762"
     inkscape:cy="207.93609"
     inkscape:window-x="0"
     inkscape:window-y="27"
     inkscape:current-layer="svg2356" />
  <defs
     id="defs2358">
    <marker
       id="ArrowEnd"
       viewBox="0 0 10 10"
       refX="0"
       refY="5"
       markerUnits="strokeWidth"
       markerWidth="4"
       markerHeight="3"
       orient="auto">
      <path
         d="M 0,0 L 10,5 L 0,10 L 0,0 z "
         id="path2361" />
    </marker>
    <marker
       id="ArrowStart"
       viewBox="0 0 10 10"
       refX="10"
       refY="5"
       markerUnits="strokeWidth"
       markerWidth="4"
       markerHeight="3"
       orient="auto">
      <path
         d="M 10,0 L 0,5 L 10,10 L 10,0 z "
         id="path2364" />
    </marker>
  </defs>
  <path
     style="fill:none;stroke:#ffffff;stroke-width:18;stroke-miterlimit:4;stroke-dasharray:none"
     d="M 252.55138,146.52737 C 249.15949,143.13549 243.44415,138.06707 239.45561,135.37238 C 235.46707,132.67769 231.20533,130.35672 226.72065,128.45973 C 222.23598,126.56274 217.52838,125.08974 212.6481,124.09098 C 207.76782,123.09223 202.71488,122.56772 197.53952,122.56772 C 192.36417,122.56772 187.31122,123.09223 182.43094,124.09098 C 177.55066,125.08974 172.84306,126.56274 168.35838,128.45973 C 163.87371,130.35672 159.61197,132.67769 155.62343,135.37238 C 151.63489,138.06707 145.91954,143.13549 142.52766,146.52737"
     id="path3227"
     sodipodi:nodetypes="csssssssc" />
  <path
     style="fill:none;stroke:#ffffff;stroke-width:18;stroke-miterlimit:4;stroke-dasharray:none;stroke-opacity:1"
     d="M 142.52766,248.55101 C 145.91954,251.94289 151.63489,257.01132 155.62343,259.70602 C 159.61197,262.40073 163.87371,264.72171 168.35838,266.6187 C 172.84306,268.5157 177.55066,269.98871 182.43094,270.98747 C 187.31122,271.98623 192.36417,272.51074 197.53952,272.51074 C 202.71488,272.51074 207.76782,271.98623 212.6481,270.98747 C 217.52838,269.98871 222.23598,268.5157 226.72065,266.6187 C 231.20533,264.72171 235.46707,262.40073 239.45561,259.70602 C 243.44415,257.01132 249.15949,251.94289 252.55138,248.55101"
     id="path3225"
     sodipodi:nodetypes="csssssssc" />
  <path
     style="fill:none;stroke:#000000;stroke-width:12.5"
     d="M 144.50777,250.57098 C 147.90096,253.96417 151.61772,257.03378 155.60778,259.72952 C 159.59784,262.42527 163.86119,264.74715 168.34755,266.64488 C 172.83391,268.54262 177.54328,270.01621 182.42537,271.01536 C 187.30746,272.01451 192.36227,272.53923 197.53952,272.53923 C 202.71677,272.53923 207.77158,272.01451 212.65367,271.01536 C 217.53576,270.01621 222.24513,268.54262 226.73149,266.64488 C 231.21785,264.74715 235.4812,262.42527 239.47126,259.72952 C 243.46131,257.03378 247.17808,253.96417 250.57127,250.57098"
     id="path3219" />
  <path
     style="fill:none;stroke:#000000;stroke-width:12.5"
     d="M 250.57127,144.50748 C 247.17808,141.11429 243.46131,138.04468 239.47126,135.34894 C 235.4812,132.65319 231.21785,130.33131 226.73149,128.43357 C 222.24513,126.53584 217.53576,125.06225 212.65367,124.0631 C 207.77158,123.06395 202.71677,122.53923 197.53952,122.53923 C 192.36227,122.53923 187.30746,123.06395 182.42537,124.0631 C 177.54328,125.06225 172.83391,126.53584 168.34755,128.43357 C 163.86119,130.33131 159.59784,132.65319 155.60778,135.34894 C 151.61772,138.04468 147.90096,141.11429 144.50777,144.50748"
     id="path3217" />
  <path
     id="path1376"
     d="M 182.53927,197.53913 C 182.53927,150.59813 144.48027,112.53933 97.53927,112.53933 C 50.59827,112.53933 12.53927,150.59813 12.53927,197.53913 C 12.53927,244.48013 50.59827,282.53913 97.53927,282.53913 C 144.48027,282.53913 182.53927,244.48013 182.53927,197.53913 z "
     style="fill:none;stroke:#ffffff;stroke-width:18" />
  <path
     id="path1378"
     d="M 382.53952,197.53913 C 382.53952,150.59813 344.48052,112.53933 297.53952,112.53933 C 250.59852,112.53933 212.53952,150.59813 212.53952,197.53913 C 212.53952,244.48013 250.59852,282.53913 297.53952,282.53913 C 344.48052,282.53913 382.53952,244.48013 382.53952,197.53913 z "
     style="fill:none;stroke:#ffffff;stroke-width:18" />
  <path
     id="path1332"
     d="M 182.53952,197.53923 C 182.53952,150.59823 144.48052,112.53923 97.53952,112.53923 C 50.59852,112.53923 12.53902,150.59823 12.53902,197.53923 C 12.53902,244.48023 50.59852,282.53923 97.53952,282.53923 C 144.48052,282.53923 182.53952,244.48023 182.53952,197.53923 z "
     style="fill:none;stroke:#000000;stroke-width:12.5" />
  <path
     id="path1334"
     d="M 382.53952,197.53923 C 382.53952,150.59823 344.48052,112.53923 297.53952,112.53923 C 250.59852,112.53923 212.53952,150.59823 212.53952,197.53923 C 212.53952,244.48023 250.59852,282.53923 297.53952,282.53923 C 344.48052,282.53923 382.53952,244.48023 382.53952,197.53923 z "
     style="fill:none;stroke:#000000;stroke-width:12.5" />
  <path
     id="path1336"
     d="M 282.53952,297.53923 C 282.53952,250.59823 244.48052,212.53923 197.53952,212.53923 C 150.59852,212.53923 112.53952,250.59823 112.53952,297.53923 C 112.53952,344.48023 150.59852,382.53923 197.53952,382.53923 C 244.48052,382.53923 282.53952,344.48023 282.53952,297.53923 z "
     style="fill:none;stroke:#ffffff;stroke-width:18" />
  <path
     id="path1338"
     d="M 282.53952,97.53923 C 282.53952,50.59822 244.48052,12.53942 197.53952,12.53942 C 150.59852,12.53942 112.53952,50.59822 112.53952,97.53923 C 112.53952,144.48023 150.59852,182.53923 197.53952,182.53923 C 244.48052,182.53923 282.53952,144.48023 282.53952,97.53923 z "
     style="fill:none;stroke:#ffffff;stroke-width:18" />
  <path
     id="path1340"
     d="M 282.53952,297.53923 C 282.53952,250.59823 244.48052,212.53923 197.53952,212.53923 C 150.59852,212.53923 112.53952,250.59823 112.53952,297.53923 C 112.53952,344.48023 150.59852,382.53923 197.53952,382.53923 C 244.48052,382.53923 282.53952,344.48023 282.53952,297.53923 z "
     style="fill:none;stroke:#000000;stroke-width:12.5" />
  <path
     id="path1342"
     d="M 282.53952,97.53923 C 282.53952,50.59822 244.48052,12.53942 197.53952,12.53942 C 150.59852,12.53942 112.53952,50.59822 112.53952,97.53923 C 112.53952,144.48023 150.59852,182.53923 197.53952,182.53923 C 244.48052,182.53923 282.53952,144.48023 282.53952,97.53923 z "
     style="fill:none;stroke:#000000;stroke-width:12.5;stroke-opacity:1" />
  <path
     style="fill:none;stroke:#ffffff;stroke-width:18;stroke-miterlimit:4;stroke-dasharray:none"
     d="M 250.55138,250.55101 C 253.94327,247.15912 257.01169,243.44377 259.70639,239.45523 C 262.4011,235.46669 264.72208,231.20495 266.61907,226.72028 C 268.51607,222.2356 269.98908,217.528 270.98784,212.64772 C 271.9866,207.76744 272.51111,202.71449 272.51111,197.53914 C 272.51111,192.36379 271.9866,187.31084 270.98784,182.43057 C 269.98908,177.5503 268.51607,172.8427 266.61907,168.35803 C 264.72208,163.87337 262.4011,159.61164 259.70639,155.62311 C 257.01169,151.63457 253.94327,147.91924 250.55138,144.52737"
     id="path3223" />
  <path
     style="fill:none;stroke:#000000;stroke-width:12.5"
     d="M 248.57127,252.57098 C 251.96446,249.17779 257.03406,243.46103 259.72981,239.47097 C 262.42556,235.48091 264.74744,231.21756 266.64517,226.7312 C 268.54291,222.24484 270.01649,217.53547 271.01565,212.65338 C 272.0148,207.77129 272.53952,202.71648 272.53952,197.53923 C 272.53952,192.36198 272.0148,187.30717 271.01565,182.42508 C 270.01649,177.54299 268.54291,172.83362 266.64517,168.34726 C 264.74744,163.8609 262.42556,159.59755 259.72981,155.60749 C 257.03406,151.61743 251.96446,145.90067 248.57127,142.50748"
     id="path3215"
     sodipodi:nodetypes="csssssssc" />
  <path
     style="fill:none;stroke:#ffffff;stroke-width:18;stroke-miterlimit:4;stroke-dasharray:none"
     d="M 144.52766,144.52737 C 141.13577,147.91924 138.06734,151.63457 135.37264,155.62311 C 132.67793,159.61164 130.35695,163.87337 128.45996,168.35803 C 126.56296,172.8427 125.08995,177.5503 124.09119,182.43057 C 123.09243,187.31084 122.56792,192.36379 122.56792,197.53914 C 122.56792,202.71449 123.09243,207.76744 124.09119,212.64772 C 125.08995,217.528 126.56296,222.2356 128.45996,226.72028 C 130.35695,231.20495 132.67793,235.46669 135.37264,239.45523 C 138.06734,243.44377 141.13577,247.15912 144.52766,250.55101"
     id="path1380"
     sodipodi:nodetypes="csssssssc" />
  <path
     style="fill:none;stroke:#000000;stroke-width:12.5"
     d="M 146.50777,142.50748 C 143.11458,145.90067 138.04497,151.61743 135.34923,155.60749 C 132.65348,159.59755 130.3316,163.8609 128.43386,168.34726 C 126.53613,172.83362 125.06254,177.54299 124.06339,182.42508 C 123.06424,187.30717 122.53952,192.36198 122.53952,197.53923 C 122.53952,202.71648 123.06424,207.77129 124.06339,212.65338 C 125.06254,217.53547 126.53613,222.24484 128.43386,226.7312 C 130.3316,231.21756 132.65348,235.48091 135.34923,239.47097 C 138.04497,243.46103 143.11458,249.17779 146.50777,252.57098"
     id="path1330"
     sodipodi:nodetypes="csssssssc" />
</svg>
